HIERARCHY
ROOT ui
{
	 OFFSET 0 0 0
	 CHANNELS 3 XPosition YPosition Z Position
	 EndSite
	 {
	 OFFSET 0 -1 0
	 }
}
ROOT li
{
	 OFFSET 0 0 0
	 CHANNELS 3 XPosition YPosition Z Position
	 EndSite
	 {
	 OFFSET 0 -1 0
	 }
}
ROOT ul
{
	 OFFSET 0 0 0
	 CHANNELS 3 XPosition YPosition Z Position
	 EndSite
	 {
	 OFFSET 0 -1 0
	 }
}
ROOT ll
{
	 OFFSET 0 0 0
	 CHANNELS 3 XPosition YPosition Z Position
	 EndSite
	 {
	 OFFSET 0 -1 0
	 }
}
ROOT tt
{
	 OFFSET 0 0 0
	 CHANNELS 3 XPosition YPosition Z Position
	 EndSite
	 {
	 OFFSET 0 -1 0
	 }
}
ROOT tb
{
	 OFFSET 0 0 0
	 CHANNELS 3 XPosition YPosition Z Position
	 EndSite
	 {
	 OFFSET 0 -1 0
	 }
}
ROOT td
{
	 OFFSET 0 0 0
	 CHANNELS 3 XPosition YPosition Z Position
	 EndSite
	 {
	 OFFSET 0 -1 0
	 }
}
ROOT v
{
	 OFFSET 0 0 0
	 CHANNELS 3 XPosition YPosition Z Position
	 EndSite
	 {
	 OFFSET 0 -1 0
	 }
}
ROOT bn
{
	 OFFSET 0 0 0
	 CHANNELS 3 XPosition YPosition Z Position
	 EndSite
	 {
	 OFFSET 0 -1 0
	 }
}
MOTION
Frames: 10
Frame Time: 0.002
-3.8078299164772035E-4	-6.340609788894653E-4	0		0.41630560302734376	-2.318439697265625	0		-1.066448486328125	-0.04330240249633789	0		-0.7571199340820313	-2.3279521484375	0		1.40350830078125	-0.4698306884765625	0		3.04625	3.7964800000190734E-4	0		4.51457861328125	0.10200747680664063	0		5.58068408203125	0.046655418395996094	0		-0.1280069580078125	5.91410595703125	0		
-6.883829832077026E-4	-9.94458019733429E-4	0		0.417981201171875	-2.3168505859375	0		-1.128925048828125	-0.05139241027832031	0		-0.8283096313476562	-2.318872802734375	0		1.403189208984375	-0.47022528076171877	0		3.054920654296875	-0.0012351609468460084	0		4.5232314453125	0.09935708618164063	0		5.584537109375	0.05407725524902344	0		-0.11395278930664063	5.9244658203125	0		
0.0020633809566497803	0.0015772969722747802	0		0.42071990966796874	-2.312288818359375	0		-1.12109521484375	-0.044895862579345705	0		-0.751706298828125	-2.32176611328125	0		1.416687255859375	-0.4799040832519531	0		3.034937744140625	0.014725272178649901	0		4.52292626953125	0.09888571166992187	0		5.58423046875	0.05358149337768554	0		-0.23234150695800782	5.91447119140625	0		
0.001758402943611145	0.0012055350542068482	0		0.4203642883300781	-2.312669921875	0		-1.1331978759765624	-0.03500402450561523	0		-0.8249469604492188	-2.315656005859375	0		1.4086947021484375	-0.46414932250976565	0		3.042410400390625	0.0031286680698394773	0		4.52676318359375	0.10533325958251953	0		5.5839267578125	0.053087581634521486	0		-0.10106143951416016	5.93546826171875	0		
0.0014589420557022095	8.321639895439148E-4	0		0.4449110107421875	-2.318553466796875	0		-1.0517962646484376	-0.0509997444152832	0		-0.7622471313476562	-2.314279541015625	0		1.4053057861328124	-0.46849090576171876	0		3.05324951171875	0.009469322204589844	0		4.52232568359375	0.09794742584228516	0		5.58946630859375	0.044478836059570315	0		-0.10123722076416015	5.93509716796875	0		
-0.0018923850059509278	-0.002479401111602783	0		0.4165791931152344	-2.318371337890625	0		-1.0638851318359375	-0.041111930847167966	0		-0.7666642456054688	-2.3185556640625	0		1.401945068359375	-0.47183026123046873	0		3.032861572265625	0.004439877986907959	0		4.5220361328125	0.09748531341552734	0		5.5933359375	0.051913455963134764	0		-0.11758912658691406	5.92605029296875	0		
8.859599828720092E-4	9.026999771595002E-5	0		0.44220819091796876	-2.32127197265625	0		-1.0641673583984375	-0.041461055755615234	0		-0.7910653686523438	-2.322426025390625	0		1.40165478515625	-0.4722261962890625	0		3.0485771484375	0.0036906630992889406	0		4.52175634765625	0.09703018188476563	0		5.5830576171875	0.051639461517333986	0		-0.10353933715820313	5.93639892578125	0		
6.168630123138428E-4	-2.7328899502754214E-4	0		0.42108184814453126	-2.31222216796875	0		-1.12254638671875	-0.04663410186767578	0		-0.7872774658203125	-2.317856689453125	0		1.42133251953125	-0.4750185852050781	0		3.05022705078125	-7.688519954681396E-4	0		4.5146318359375	0.1037226333618164	0		5.58858642578125	0.04105356979370117	0		-0.2189775848388672	5.923359375	0		
0.007502020835876465	0.006228836059570313	0		0.44977874755859376	-2.31317041015625	0		-1.048837158203125	-0.04946198654174805	0		-0.7496027221679687	-2.319964111328125	0		1.410333740234375	-0.46218051147460937	0		3.056273681640625	0.013695764541625976	0		4.525376953125	0.10306246948242187	0		5.58253564453125	0.050714744567871096	0		-0.08864529418945312	5.94537939453125	0		
1.23368002474308E-4	-9.729260206222534E-4	0		0.41846331787109375	-2.314896484375	0		-1.0608724365234374	-0.039546775817871097	0		-0.7539641723632813	-2.324213134765625	0		1.421841552734375	-0.4747908935546875	0		3.014841552734375	0.0041253862380981445	0		4.516162109375	0.10381636047363281	0		5.5822978515625	0.05026757431030274	0		-0.1181930160522461	5.92462646484375	0		
